<svg width="28" height="22" viewBox="0 0 28 22" fill="none" xmlns="http://www.w3.org/2000/svg">
<path d="M26.6035 21.1672H7.88005C7.10836 21.1672 6.48291 20.5417 6.48291 19.7701C6.48291 18.9984 7.10836 18.3729 7.88005 18.3729H26.6031C27.3748 18.3729 28.0002 18.9984 28.0002 19.7701C28.0002 20.5417 27.3752 21.1672 26.6035 21.1672Z" fill="white"/>
<path d="M26.6035 12.3974H7.88005C7.10836 12.3974 6.48291 11.7719 6.48291 11.0002C6.48291 10.2285 7.10836 9.60309 7.88005 9.60309H26.6031C27.3748 9.60309 28.0002 10.2285 28.0002 11.0002C28.0007 11.7719 27.3752 12.3974 26.6035 12.3974Z" fill="white"/>
<path d="M26.6035 3.62752H7.88005C7.10836 3.62752 6.48291 3.00207 6.48291 2.23039C6.48291 1.4587 7.10836 0.833252 7.88005 0.833252H26.6031C27.3748 0.833252 28.0002 1.4587 28.0002 2.23039C28.0002 3.00207 27.3752 3.62752 26.6035 3.62752Z" fill="white"/>
<path d="M1.87635 4.2148C2.91264 4.2148 3.75271 3.37473 3.75271 2.33845C3.75271 1.30217 2.91264 0.462097 1.87635 0.462097C0.840072 0.462097 0 1.30217 0 2.33845C0 3.37473 0.840072 4.2148 1.87635 4.2148Z" fill="white"/>
<path d="M1.87635 12.8766C2.91264 12.8766 3.75271 12.0365 3.75271 11.0003C3.75271 9.96397 2.91264 9.1239 1.87635 9.1239C0.840072 9.1239 0 9.96397 0 11.0003C0 12.0365 0.840072 12.8766 1.87635 12.8766Z" fill="white"/>
<path d="M1.87635 21.5384C2.91264 21.5384 3.75271 20.6983 3.75271 19.662C3.75271 18.6257 2.91264 17.7856 1.87635 17.7856C0.840072 17.7856 0 18.6257 0 19.662C0 20.6983 0.840072 21.5384 1.87635 21.5384Z" fill="white"/>
</svg>
