<svg width="17" height="17" viewBox="0 0 17 17" fill="none" xmlns="http://www.w3.org/2000/svg">
<path d="M16.7923 15.7917L11.958 10.9574C12.8944 9.80068 13.4582 8.33089 13.4582 6.73009C13.4582 3.01987 10.4393 0.000976562 6.72908 0.000976562C3.01886 0.000976562 0 3.01984 0 6.73005C0 10.4403 3.0189 13.4592 6.72911 13.4592C8.32992 13.4592 9.79971 12.8953 10.9564 11.9589L15.7907 16.7933C15.9288 16.9314 16.1102 17.0008 16.2915 17.0008C16.4729 17.0008 16.6542 16.9314 16.7923 16.7933C17.0693 16.5163 17.0693 16.0686 16.7923 15.7917ZM6.72911 12.0425C3.79946 12.0425 1.41666 9.6597 1.41666 6.73005C1.41666 3.80041 3.79946 1.41761 6.72911 1.41761C9.65876 1.41761 12.0416 3.80041 12.0416 6.73005C12.0416 9.6597 9.65873 12.0425 6.72911 12.0425Z" fill="white" fill-opacity="0.5"/>
</svg>
